<svg aria-hidden="true" style="position: absolute; width: 0; height: 0; overflow: hidden;" version="1.1" xmlns="http://www.w3.org/2000/svg" xmlns:xlink="http://www.w3.org/1999/xlink">
    <defs>
        <symbol id="arrow" viewBox="-4 0 18 15">
            <path d="M11.5 7.5q0 0.422-0.289 0.711l-5.086 5.086q-0.305 0.289-0.711 0.289-0.398 0-0.703-0.289l-0.586-0.586q-0.297-0.297-0.297-0.711t0.297-0.711l2.289-2.289h-5.5q-0.406 0-0.66-0.293t-0.254-0.707v-1q0-0.414 0.254-0.707t0.66-0.293h5.5l-2.289-2.297q-0.297-0.281-0.297-0.703t0.297-0.703l0.586-0.586q0.297-0.297 0.703-0.297 0.414 0 0.711 0.297l5.086 5.086q0.289 0.273 0.289 0.703z"></path>
        </symbol>

        <symbol id="login" viewBox="-2 0 15 11">
            <path d="M9.25 7q0 0.203-0.148 0.352l-4.25 4.25q-0.148 0.148-0.352 0.148t-0.352-0.148-0.148-0.352v-2.25h-3.5q-0.203 0-0.352-0.148t-0.148-0.352v-3q0-0.203 0.148-0.352t0.352-0.148h3.5v-2.25q0-0.203 0.148-0.352t0.352-0.148 0.352 0.148l4.25 4.25q0.148 0.148 0.148 0.352zM12 4.25v5.5q0 0.93-0.66 1.59t-1.59 0.66h-2.5q-0.102 0-0.176-0.074t-0.074-0.176q0-0.031-0.008-0.156t-0.004-0.207 0.023-0.184 0.078-0.152 0.16-0.051h2.5q0.516 0 0.883-0.367t0.367-0.883v-5.5q0-0.516-0.367-0.883t-0.883-0.367h-2.438t-0.090-0.008-0.090-0.023-0.062-0.043-0.055-0.070-0.016-0.105q0-0.031-0.008-0.156t-0.004-0.207 0.023-0.184 0.078-0.152 0.16-0.051h2.5q0.93 0 1.59 0.66t0.66 1.59z"></path>
        </symbol>
        <symbol id="profile" viewBox="0 0 64 64">
            <g
                    transform="matrix(2.7850559,0,0,2.7850559,0.641752,-4.6602525)">
                <g

                        id="g18"
                        transform="translate(-477,-93)">
                    <g
                            id="g16"
                            transform="translate(479,96)">
                        <path
                                id="path6"
                                d="M 14,5 C 14,2.2385763 11.761424,0 9,0 6.2385763,0 4,2.2385763 4,5 c 0,2.7614237 2.2385763,5 5,5 2.761424,0 5,-2.2385763 5,-5 z M 5,5 C 5,2.790861 6.790861,1 9,1 11.209139,1 13,2.790861 13,5 13,7.209139 11.209139,9 9,9 6.790861,9 5,7.209139 5,5 Z"/>
                        <path
                                id="path8"
                                d="M 1.5054833,17 C 1.2289799,17 1,16.772394 1,16.507187 V 14.75 C 1,12.280926 4.162989,10 9,10 c 2.907168,0 5.198853,0.782299 6.626574,2.082194 0.204188,0.185908 0.520424,0.171088 0.706331,-0.0331 0.185908,-0.204189 0.171088,-0.520424 -0.0331,-0.706332 C 14.676299,9.8646105 12.143488,9 9,9 3.667927,9 0,11.645051 0,14.75 v 1.757187 C 0,17.32603 0.67803787,18 1.5054833,18 h 9.2855327 c 0.276142,0 0.5,-0.223858 0.5,-0.5 0,-0.276142 -0.223858,-0.5 -0.5,-0.5 z"/>
                        <path
                                id="path10"
                                d="m 18.242172,13.172041 -4.949747,4.949748 -1.414214,-1.414214 4.950216,-4.949279 z m -1.767298,-2.475342 -5.656854,5.656854 c -0.195263,0.195262 -0.195263,0.511845 0,0.707107 l 2.12132,2.121321 c 0.195262,0.195262 0.511845,0.195262 0.707107,0 l 5.656854,-5.656855 c 0.195262,-0.195262 0.195262,-0.511844 0,-0.707106 l -2.12132,-2.121321 c -0.195263,-0.195262 -0.511845,-0.195262 -0.707107,0 z"/>
                        <path
                                id="path12"
                                d="m 9.6365711,19.730973 c -0.087324,0.261972 0.054256,0.545132 0.3162277,0.632456 0.2619722,0.08732 0.5451322,-0.05426 0.6324552,-0.316228 l 1.060661,-3.18198 c 0.08732,-0.261972 -0.05426,-0.545132 -0.316228,-0.632456 -0.261972,-0.08732 -0.545132,0.05426 -0.632456,0.316228 z"/>
                        <path
                                id="path14"
                                d="m 13.451007,19.302769 c 0.261972,-0.08732 0.403552,-0.370484 0.316228,-0.632456 -0.08732,-0.261971 -0.370484,-0.403551 -0.632456,-0.316228 l -3.1819802,1.060661 c -0.2619716,0.08732 -0.4035516,0.370483 -0.3162277,0.632455 0.087324,0.261972 0.3704839,0.403552 0.6324559,0.316228 z"/>
                    </g>
                </g>
            </g>
        </symbol>

        <symbol id="accessCard" viewBox="0 0 64 64">
            <g
                    id="g14"
                    transform="matrix(1.1377119,0,0,1.1377119,5,4.3898302)">
                <path
                        id="ellipse2"
                        d="m 14.900391,19.900391 c -2.749579,0 -5.0000004,2.250421 -5.0000004,5 0,2.749579 2.2504214,5 5.0000004,5 2.749579,0 5,-2.250421 5,-5 0,-2.749579 -2.250421,-5 -5,-5 z m 0,2 c 1.668699,0 3,1.331301 3,3 0,1.668699 -1.331301,3 -3,3 -1.668699,0 -3,-1.331301 -3,-3 0,-1.668699 1.331301,-3 3,-3 z"/>
                <path
                        id="path4"
                        d="m 14.900391,30.900391 c -5.8408809,0 -10.579934,4.751956 -10.7988285,10.662109 L 4.0625,42.599609 H 25.738281 L 25.699219,41.5625 C 25.480324,35.652347 20.741271,30.900391 14.900391,30.900391 Z m 0,2 c 4.399183,0 7.897294,3.339813 8.564453,7.699218 H 6.3359375 C 7.00315,36.240269 10.501252,32.900391 14.900391,32.900391 Z"
                />
                <path
                        id="line6"
                        d="m 29.699219,22.400391 v 2 h 11 v -2 z"
                />
                <path
                        id="line8"
                        d="m 29.699219,28 v 2 h 11 v -2 z"
                />
                <path
                        id="rect10"
                        d="m 19,0 v 1 16 h 9.900391 V 0 Z m 2,2 h 5.900391 V 15 H 21 Z"
                />
                <path
                        id="path12"
                        d="m 4,12.5 c -2.1416667,0 -4,1.75098 -4,4 V 44 c 0,2.141667 1.7509804,4 4,4 h 40 c 2.141667,0 4,-1.75098 4,-4 V 16.5 c 0,-2.209804 -1.790196,-4 -4,-4 H 27 V 15 h -6 v -2.5 z m 0,2 H 19 V 17 h 10 v -2.5 h 15 c 1.190196,0 2,0.809804 2,2 V 44 c 0,1.15098 -0.941667,2 -2,2 H 4 C 2.8490196,46 2,45.058333 2,44 V 16.5 c 0,-1.15098 0.9416667,-2 2,-2 z"
                />
            </g>
        </symbol>
        <symbol id="results" viewBox="0 0 64 64">
            <path
                    d="m 18.341201,2.5094756 c -4.031898,0 -7.319356,3.2874577 -7.319356,7.3193572 V 53.744965 c 0,4.031898 3.287458,7.319356 7.319356,7.319356 h 27.946591 c 4.031962,0 7.319355,-3.287458 7.319355,-7.319356 V 9.8288328 c 0,-4.0318995 -3.287393,-7.3193572 -7.319355,-7.3193572 z m 0,2.6615598 h 27.946591 c 2.603424,0 4.657851,2.0544365 4.657851,4.6577974 V 53.744965 c 0,2.603361 -2.054427,4.657796 -4.657851,4.657796 H 18.341201 c -2.603361,0 -4.657796,-2.054435 -4.657796,-4.657796 V 9.8288328 c 0,-2.6033609 2.054435,-4.6577974 4.657796,-4.6577974 z m 9.814567,8.6293826 a 1.3309228,1.3309228 0 0 0 -0.769359,0.394761 l -5.718189,5.718362 -3.056687,-3.056625 a 1.3309228,1.3309228 0 1 0 -1.871412,1.892157 l 3.992393,3.99234 a 1.3309228,1.3309228 0 0 0 1.871466,0 l 6.653854,-6.653852 A 1.3309228,1.3309228 0 0 0 28.155768,13.80022 Z m 4.15877,4.6786 c -0.735016,0 -1.330765,0.595781 -1.330765,1.330729 0,0.735018 0.595833,1.330776 1.330765,1.330776 H 46.95325 c 0.73504,0 1.330746,-0.595764 1.330746,-1.330776 0,-0.735024 -0.595801,-1.330729 -1.330746,-1.330729 z m -4.15877,8.629345 a 1.3309228,1.3309228 0 0 0 -0.769359,0.394744 L 21.66822,33.221376 18.611533,30.16472 a 1.3309228,1.3309228 0 1 0 -1.871412,1.892197 l 3.992393,3.99242 a 1.3309228,1.3309228 0 0 0 1.871466,0 l 6.653854,-6.653951 a 1.3309228,1.3309228 0 0 0 -1.102066,-2.287254 z m 4.15877,4.678535 c -0.735016,0 -1.330765,0.595843 -1.330765,1.330831 0,0.73498 0.595833,1.330729 1.330765,1.330729 H 46.95325 c 0.73504,0 1.330746,-0.595754 1.330746,-1.330729 0,-0.73507 -0.595801,-1.330831 -1.330746,-1.330831 z m -4.15877,8.62931 a 1.3309228,1.3309228 0 0 0 -0.769359,0.395158 l -5.718189,5.718305 -3.056687,-3.056659 a 1.3309228,1.3309228 0 1 0 -1.871412,1.892176 l 3.992393,3.992281 a 1.3309228,1.3309228 0 0 0 1.871466,0 l 6.653854,-6.653801 a 1.3309228,1.3309228 0 0 0 -1.102066,-2.287352 z m 4.15877,4.678571 c -0.735016,0 -1.330765,0.595955 -1.330765,1.330831 0,0.734944 0.595833,1.33083 1.330765,1.33083 H 46.95325 c 0.73504,0 1.330746,-0.595955 1.330746,-1.33083 0,-0.734945 -0.595801,-1.330831 -1.330746,-1.330831 z"/>
        </symbol>
    </defs>
</svg>
